<svg xmlns="http://www.w3.org/2000/svg" version="1.1" xmlns:xlink="http://www.w3.org/1999/xlink" width="512" height="512" x="0" y="0" viewBox="0 0 31.82 31.82" style="enable-background:new 0 0 512 512" xml:space="preserve"><g><path d="M19.427 15.983c-.697.667-1.432 1.57-2.1 2.781-.66-2.383-1.492-4.13-2.333-5.409C18.853.462.046 0 .046 0s.549 16.114 10.371 15.744c-.02-1.079-.187-2.17-.421-3.193a23.273 23.273 0 0 0-.523-1.89c-.628-1.947-1.337-3.329-1.337-3.329.716.962 1.35 1.88 1.91 2.743 1.927 2.965 2.979 5.271 3.468 6.489 1.207 2.593 2.291 6.858 2.291 13.828a1.429 1.429 0 0 0 2.855 0c0-2.259-.109-4.269-.306-6.062.455-2.188 1.142-3.741 1.853-4.841a30.734 30.734 0 0 1 2.488-3.975c1.033-1.386 2.307-2.798 3.748-3.806 0 0-2.955 3.271-3.146 6.473 8.162.426 8.479-12.415 8.479-12.415s-14.937.51-12.349 10.217z" fill="#ffffff" opacity="1" data-original="#000000"></path></g></svg>